<svg xmlns="http://www.w3.org/2000/svg" width="52" height="52" fill="none" viewBox="0 0 52 52">
  <g opacity=".2">
    <path fill="#FF9800" d="M27.825 36v-3.188c3.779-.207 6.305-1.167 6.642-4.756.264-2.88-1.084-4.165-3.223-4.682l.001-.002c1.289-.665 2.109-1.846 1.919-3.811-.249-2.688-2.438-3.589-5.339-3.84V12h-2.256v3.619c-.586 0-1.186.015-1.787.03v-3.648h-2.256v3.722c-.829.025-1.795.013-4.526 0v2.422c1.781-.032 2.715-.147 2.929 1.004V29.34c-.136.914-.861.782-2.475.753L17 32.796c4.113 0 4.526.015 4.526.015v3.188h2.256v-3.143c.596.012 1.191.017 1.787.015V36h2.256Zm-3.998-17.694c1.274 0 5.259-.399 5.259 2.275 0 2.555-3.985 2.26-5.259 2.26v-4.535Zm0 11.8v-4.992c1.523 0 6.188-.428 6.188 2.496 0 2.821-4.665 2.496-6.188 2.496Z"/>
    <circle cx="26" cy="26" r="25.5" stroke="#C1C1C1"/>
    <circle cx="26" cy="26" r="21.5" stroke="#C1C1C1" stroke-dasharray="2 2"/>
    <path fill="#FF9800" d="m24.202 45-.998-3.273h.529l.707 2.506h.034l.7-2.506h.536l.69 2.497h.035l.707-2.497h.529L26.672 45h-.494l-.716-2.514h-.051L24.696 45h-.494Z"/>
  </g>
</svg>
